# xmcd
#
# Track frame offsets:
#	150
#	42241
#	97065
#	108057
#	112123
#	118102
#	125412
#	133858
#	138848
#	155560
#	187461
#	206484
#	222023
#	225860
#	239018
#	243040
#	255331
#	270783
#	307334
#	319595
#
# Disc length: 4645 seconds
# Revision: 0
# Processed by: cddbd v1.5.2PL0 Copyright (c) Steve Scherf et al.
# Submitted via: dBpowerAMP V12.0
#
DISCID=1d122314
DTITLE=Das Blut der Lilie 5 - Das Blut der Lilie CD5
DYEAR=1900
DGENRE=Unbekanntes Genre
TTITLE0=01
TTITLE1=02
TTITLE2=03
TTITLE3=04
TTITLE4=05
TTITLE5=06
TTITLE6=07
TTITLE7=08
TTITLE8=09
TTITLE9=10
TTITLE10=11
TTITLE11=12
TTITLE12=13
TTITLE13=14
TTITLE14=15
TTITLE15=16
TTITLE16=17
TTITLE17=18
TTITLE18=19
TTITLE19=20
EXTD=
EXTT0=
EXTT1=
EXTT2=
EXTT3=
EXTT4=
EXTT5=
EXTT6=
EXTT7=
EXTT8=
EXTT9=
EXTT10=
EXTT11=
EXTT12=
EXTT13=
EXTT14=
EXTT15=
EXTT16=
EXTT17=
EXTT18=
EXTT19=
PLAYORDER=
